<?xml version="1.0" encoding="UTF-8" standalone="no"?>
<!-- Created with Inkscape (http://www.inkscape.org/) -->

<svg
   xmlns:dc="http://purl.org/dc/elements/1.1/"
   xmlns:cc="http://creativecommons.org/ns#"
   xmlns:rdf="http://www.w3.org/1999/02/22-rdf-syntax-ns#"
   xmlns:svg="http://www.w3.org/2000/svg"
   xmlns="http://www.w3.org/2000/svg"
   xmlns:sodipodi="http://sodipodi.sourceforge.net/DTD/sodipodi-0.dtd"
   xmlns:inkscape="http://www.inkscape.org/namespaces/inkscape"
   width="23.863344mm"
   height="17.362669mm"
   viewBox="0 0 23.863344 17.362669"
   version="1.1"
   id="svg5915"
   inkscape:version="0.92.1 r15371"
   sodipodi:docname="favicon_blue.svg">
  <defs
     id="defs5909" />
  <sodipodi:namedview
     id="base"
     pagecolor="#ffffff"
     bordercolor="#666666"
     borderopacity="1.0"
     inkscape:pageopacity="0.0"
     inkscape:pageshadow="2"
     inkscape:zoom="3.959798"
     inkscape:cx="41.109552"
     inkscape:cy="32.828623"
     inkscape:document-units="mm"
     inkscape:current-layer="layer1"
     showgrid="false"
     inkscape:window-width="1366"
     inkscape:window-height="705"
     inkscape:window-x="-8"
     inkscape:window-y="-8"
     inkscape:window-maximized="1" />
  <metadata
     id="metadata5912">
    <rdf:RDF>
      <cc:Work
         rdf:about="">
        <dc:format>image/svg+xml</dc:format>
        <dc:type
           rdf:resource="http://purl.org/dc/dcmitype/StillImage" />
        <dc:title></dc:title>
      </cc:Work>
    </rdf:RDF>
  </metadata>
  <g
     inkscape:label="Layer 1"
     inkscape:groupmode="layer"
     id="layer1"
     transform="translate(-47.032613,-109.15795)">
    <path
       style="display:inline;fill:#028ecc;fill-opacity:1;stroke:none;stroke-width:0.76464581;stroke-linecap:butt;stroke-linejoin:miter;stroke-miterlimit:4;stroke-dasharray:none;stroke-opacity:1"
       d="m 47.032613,126.52062 c 0.393313,-1.15192 3.943583,-2.4661 6.386662,-4.03081 1.358843,-0.88788 2.850796,-1.72855 4.109244,-3.87589 1.264436,-2.2556 2.577696,-4.66059 4.109258,-5.83959 1.784404,-3.00654 3.861877,-3.84576 5.545011,-3.56572 0.747545,0.14994 1.397426,0.4017 1.881344,0.82687 1.663481,-0.68736 1.706182,-0.52878 1.831826,-0.41344 -1.944981,0.97445 -2.290902,2.5769 -2.02987,4.54762 0.51938,2.56661 0.881832,4.58472 -0.396073,6.97643 -1.183974,1.72491 -4.758644,4.14595 -11.090007,3.8242 -1.104507,-1.2671 -2.812605,1.56376 -2.531798,0.888 0.392634,-0.9447 0.989693,-2.46402 0.247412,-1.57306 -0.617135,0.74095 -1.946127,2.59433 -1.546374,1.8697 1.089756,-1.97575 0.523151,-2.54347 -0.179476,-2.3215 -1.277076,0.11949 -3.715977,1.59412 -6.337159,2.68719 z"
       id="path6189-7-7-5-7-7-2"
       inkscape:connector-curvature="0"
       sodipodi:nodetypes="ccccccccccssscc" />
  </g>
</svg>
